<svg width="524.2" height="124.7" viewBox="0 0 524.2 124.7" xmlns="http://www.w3.org/2000/svg" xmlns:xlink="http://www.w3.org/1999/xlink" overflow="hidden"><defs></defs><linearGradient x1="141.938" y1="11.6631" x2="69.4607" y2="84.1403" gradientUnits="userSpaceOnUse" id="SVGID_1_"><stop offset="0.00118886" stop-color="#5BC3B6"/><stop offset="0.1132" stop-color="#58BAB7"/><stop offset="0.3124" stop-color="#4CA8B9"/><stop offset="0.5735" stop-color="#3A8BB8"/><stop offset="0.8226" stop-color="#276EB6"/><stop offset="0.8545" stop-color="#276AB0"/><stop offset="0.8843" stop-color="#2763A3"/><stop offset="0.9133" stop-color="#265791"/><stop offset="0.9418" stop-color="#224779"/><stop offset="0.97" stop-color="#19325D"/><stop offset="0.9975" stop-color="#0C193F"/><stop offset="1" stop-color="#0B173C"/></linearGradient><linearGradient x1="0" y1="82.5" x2="83.0511" y2="82.5" gradientUnits="userSpaceOnUse" id="SVGID_2_"><stop offset="0" stop-color="#5BC3B6"/><stop offset="0.2675" stop-color="#5BC1B6"/><stop offset="0.4315" stop-color="#58BBB7"/><stop offset="0.5677" stop-color="#52B2B8"/><stop offset="0.6887" stop-color="#4AA5B9"/><stop offset="0.7996" stop-color="#4095B8"/><stop offset="0.9015" stop-color="#3583B7"/><stop offset="0.9976" stop-color="#286EB6"/><stop offset="1" stop-color="#276EB6"/></linearGradient><linearGradient x1="172.344" y1="62.3653" x2="177.599" y2="62.3653" gradientUnits="userSpaceOnUse" id="SVGID_3_"><stop offset="0.00118886" stop-color="#5BC3B6"/><stop offset="0.1132" stop-color="#58BAB7"/><stop offset="0.3124" stop-color="#4CA8B9"/><stop offset="0.5735" stop-color="#3A8BB8"/><stop offset="0.8226" stop-color="#276EB6"/><stop offset="0.8545" stop-color="#276AB0"/><stop offset="0.8843" stop-color="#2763A3"/><stop offset="0.9133" stop-color="#265791"/><stop offset="0.9418" stop-color="#224779"/><stop offset="0.97" stop-color="#19325D"/><stop offset="0.9975" stop-color="#0C193F"/><stop offset="1" stop-color="#0B173C"/></linearGradient><path d="M83.1 97.7 151.8 29C153.9 26.9 153.9 23.6 151.8 21.5L132.1 1.8C130-0.3 126.7-0.3 124.6 1.8L57.1 69.3" fill="url(#SVGID_1_)"/><path d="M54.8 66.8 31.1 43.2C28.9 41 25.2 41 23 43.2L1.7 64.5C-0.5 66.7-0.5 70.4 1.7 72.6L51 121.7C53.2 123.9 56.9 123.9 59.1 121.7L83.1 97.7 54.8 66.8Z" fill="url(#SVGID_2_)"/><rect x="172.3" y="0" width="5.3" height="124.7" fill="url(#SVGID_3_)"/><g><path d="M231.6 46.9 231.6 50.5 207.7 50.5 207.7 66.6 224.9 66.6 224.9 70.2 207.7 70.2 207.7 88.7 203.4 88.7 203.4 46.9 231.6 46.9Z" fill="#FFFFFF"/><path d="M240.7 49.2C240.7 51.4 240.1 51.8 238.2 51.8 236.3 51.8 235.7 51.4 235.7 49.2 235.7 47.2 236.3 46.9 238.2 46.9 240.1 46.9 240.7 47.2 240.7 49.2ZM240.1 88.7 236.2 88.7 236.2 58.4 240.1 58.4 240.1 88.7Z" fill="#FFFFFF"/><path d="M248.4 73.4C248.4 61 252.8 57.6 262.1 57.6 271.5 57.6 275.9 61.1 275.9 73.4 275.9 85.8 271.6 89.5 262.1 89.5 252.7 89.5 248.4 85.8 248.4 73.4ZM252.7 73.5C252.7 83.3 255 85.9 262.1 85.9 269.2 85.9 271.6 83.3 271.6 73.5 271.6 63.2 269.3 61.1 262.1 61.1 255.1 61.1 252.7 63.2 252.7 73.5Z" fill="#FFFFFF"/><path d="M299.8 57.7 299.8 61.7C298.9 61.6 297.8 61.5 296.7 61.5 292.2 61.5 288.2 62.8 288.2 65.5L288.2 88.7 284.3 88.7 284.3 58.4 288.2 58.4 288.2 60.6C289.3 59.2 292.4 57.6 296.7 57.6 297.8 57.6 298.9 57.6 299.8 57.7Z" fill="#FFFFFF"/><path d="M309.4 49.2C309.4 51.4 308.8 51.8 306.9 51.8 305 51.8 304.4 51.4 304.4 49.2 304.4 47.2 305 46.9 306.9 46.9 308.8 46.9 309.4 47.2 309.4 49.2ZM308.8 88.7 304.9 88.7 304.9 58.4 308.8 58.4 308.8 88.7Z" fill="#FFFFFF"/><path d="M349.7 88.7 345.3 88.7 345.3 50.5 330.8 50.5 330.8 46.9 364.2 46.9 364.2 50.5 349.7 50.5 349.7 88.7Z" fill="#FFFFFF"/><path d="M381.7 57.7 381.7 61.7C380.8 61.6 379.7 61.5 378.6 61.5 374.1 61.5 370.1 62.8 370.1 65.5L370.1 88.7 366.2 88.7 366.2 58.4 370.1 58.4 370.1 60.6C371.2 59.2 374.3 57.6 378.6 57.6 379.6 57.6 380.7 57.6 381.7 57.7Z" fill="#FFFFFF"/><path d="M410.1 87.1C406.8 88.6 401.7 89.5 397.9 89.5 389.2 89.5 385.6 87.2 385.6 79.3 385.6 70.7 390.8 69.3 397.6 69.3 400.8 69.3 403.1 69.6 406.2 70.3 406.2 62.9 404.3 61.3 397.3 61.3 394.4 61.3 391 61.7 388.6 62.7L387.5 59C389.8 58.3 393.5 57.5 397.6 57.5 406.4 57.5 410.2 60.1 410.2 69.3L410.2 87.1ZM406.2 73.6C404 73.1 401 72.8 398 72.8 391.9 72.8 389.9 73.5 389.9 79 389.9 85.1 391.6 86 398 86 400.9 86 403.8 85.5 406.2 84.6L406.2 73.6Z" fill="#FFFFFF"/><path d="M441.7 87.8C439.4 88.8 435.6 89.5 433.1 89.5 423.7 89.5 418.5 85.8 418.5 73.4 418.5 61 423.8 57.6 433.1 57.6 435.6 57.6 439.6 58.3 441.7 59.1L440.4 62.8C438.2 61.8 435.5 61.4 433 61.4 425.9 61.4 422.7 63.3 422.7 73.6 422.7 83.4 425.9 85.9 433 85.9 435.6 85.9 438.2 85.3 440.4 84.3L441.7 87.8Z" fill="#FFFFFF"/><path d="M466.4 88.7C458.4 78.9 453.2 73.4 451.1 72.7L451.1 88.7 447.2 88.7 447.2 45.4 451.1 45.4 451.1 72.7C453.1 71.3 458.2 66.3 465.3 58.4L470.3 58.4C463.2 66.3 458.4 70.9 456.4 72.1 458.3 73.1 463.3 78.6 471.3 88.7L466.4 88.7Z" fill="#FFFFFF"/><path d="M501.1 73.9 479.4 73.9C479.5 83.7 482.6 85.8 489.6 85.8 491.8 85.8 495.7 85.1 498.3 84.2L499.2 87.8C496.1 88.8 491.8 89.5 489.2 89.5 480 89.5 475 85.8 475 73.4 475 61.5 479.6 57.6 488.6 57.6 497.3 57.6 501.1 61 501.1 73.9ZM479.5 70.4 496.7 70.4C496.3 62.8 494.4 61.2 488.8 61.2 482.3 61.2 479.9 63.3 479.5 70.4Z" fill="#FFFFFF"/><path d="M524.2 57.7 524.2 61.7C523.3 61.6 522.2 61.5 521.1 61.5 516.6 61.5 512.6 62.8 512.6 65.5L512.6 88.7 508.7 88.7 508.7 58.4 512.6 58.4 512.6 60.6C513.7 59.2 516.8 57.6 521.1 57.6 522.1 57.6 523.2 57.6 524.2 57.7Z" fill="#FFFFFF"/></g></svg>