<svg width="198.8" height="438.1" viewBox="0 0 198.8 438.1" xmlns="http://www.w3.org/2000/svg" xmlns:xlink="http://www.w3.org/1999/xlink" overflow="hidden"><defs></defs><g><linearGradient x1="128.312" y1="-46.7852" x2="72.904" y2="129.512" gradientUnits="userSpaceOnUse" id="SVGID_1_"><stop offset="0.336" stop-color="#43BAEB"/><stop offset="0.5672" stop-color="#14A9E6"/><stop offset="0.7473" stop-color="#0F7FAD"/><stop offset="0.9839" stop-color="#0A5573"/></linearGradient><linearGradient x1="117.555" y1="19.0714" x2="78.1141" y2="483.073" gradientUnits="userSpaceOnUse" id="SVGID_2_"><stop offset="0.2101" stop-color="#43BAEB"/><stop offset="0.4182" stop-color="#14A9E6"/><stop offset="0.7504" stop-color="#0F7FAD"/><stop offset="0.8432" stop-color="#0F7DAB"/><stop offset="0.8922" stop-color="#0E78A3"/><stop offset="0.931" stop-color="#0D6E95"/><stop offset="0.9643" stop-color="#0B6082"/><stop offset="0.9839" stop-color="#0A5573"/></linearGradient><path d="M99.4 90.3C124.3 90.3 144.6 70 144.6 45.2 144.6 20.3 124.3 0 99.4 0 74.5 0 54.3 20.3 54.3 45.1 54.3 70 74.5 90.3 99.4 90.3Z" fill="url(#SVGID_1_)"/><path d="M198.6 231.4C198.9 230.6 198.9 229.7 198.7 228.8L178 119C176.3 108.7 167.6 101.3 157.2 101.3L41.6 101.3C31.2 101.3 22.5 108.8 20.9 118.9L0.2 228.9C2.83107e-15 229.8 0.1 230.7 0.3 231.5 0.1 232.5 0.1 233.5 0.1 234.4 0.1 246 9.6 255.5 21.2 255.5 31.4 255.5 40.1 248.2 41.9 238.1L55 156.4 54.7 417C54.7 428.6 64.2 438.1 75.8 438.1 87.4 438.1 96.9 428.6 96.9 417L96.9 288 101.9 288 101.9 417C101.9 428.6 111.4 438.1 123 438.1 134.6 438.1 144.1 428.6 144.1 417L143.9 156.4 157 238.2C158.8 248.2 167.5 255.5 177.7 255.5 189.3 255.5 198.8 246 198.8 234.4 198.8 233.4 198.7 232.4 198.6 231.4Z" fill="url(#SVGID_2_)"/></g></svg>